# xmcd
#
# Track frame offsets:
#	150
#	7500
#	18605
#	28987
#	39412
#	49850
#	59312
#
# Disc length: 915 seconds
#
# Revision: 1
# Processed by: cddbd v1.5.1PL0 Copyright (c) Steve Scherf et al.
# Submitted via: CDex 1.50Beta5
#
DISCID=4e039107
DTITLE=NEATBEATS,THE - THERE NOW!
DYEAR=2000
DGENRE=Rock
TTITLE0=LIVIN’LOVIN’WRECK
TTITLE1=GIRL CAN’T HELPIT
TTITLE2=I CAN TELL
TTITLE3=ONEGAI BABY
TTITLE4=I’M LEAVIN’YOU
TTITLE5=YOU ARE FOR ME
TTITLE6=I’LL GO CRAZY
EXTD=
EXTT0=
EXTT1=
EXTT2=
EXTT3=
EXTT4=
EXTT5=
EXTT6=
PLAYORDER=
